<svg xmlns="http://www.w3.org/2000/svg" xmlns:xlink="http://www.w3.org/1999/xlink" viewBox="0 0 89 89"><defs><style>.cls-1{fill:url(#未命名的渐变_231);}.cls-2{stroke-miterlimit:10;stroke-width:3px;fill:url(#未命名的渐变);stroke:url(#未命名的渐变_104);}</style><linearGradient id="未命名的渐变_231" x1="1.5" y1="44.5" x2="87.5" y2="44.5" gradientUnits="userSpaceOnUse"><stop offset="0.48" stop-opacity="0.9"/><stop offset="0.51" stop-color="#fff" stop-opacity="0.99"/></linearGradient><linearGradient id="未命名的渐变" x1="9.5" y1="44" x2="78.5" y2="44" gradientUnits="userSpaceOnUse"><stop offset="0" stop-color="#fff"/><stop offset="1"/></linearGradient><linearGradient id="未命名的渐变_104" x1="8" y1="44" x2="80" y2="44" gradientUnits="userSpaceOnUse"><stop offset="0.36" stop-color="#fff"/><stop offset="0.64"/></linearGradient></defs><title>资源 1</title><g id="图层_2" data-name="图层 2"><g id="图层_1-2" data-name="图层 1"><circle class="cls-1" cx="44.5" cy="44.5" r="43"/><path d="M44.5,3A41.5,41.5,0,1,1,3,44.5,41.55,41.55,0,0,1,44.5,3m0-3A44.5,44.5,0,1,0,89,44.5,44.5,44.5,0,0,0,44.5,0Z"/><path class="cls-2" d="M14.5,26A2.5,2.5,0,1,1,12,23.5,2.5,2.5,0,0,1,14.5,26ZM12,59.5A2.5,2.5,0,1,0,14.5,62,2.5,2.5,0,0,0,12,59.5Zm32,19A2.5,2.5,0,1,0,46.5,81,2.5,2.5,0,0,0,44,78.5Zm0-37A2.5,2.5,0,1,0,46.5,44,2.5,2.5,0,0,0,44,41.5Zm0-37A2.5,2.5,0,1,0,46.5,7,2.5,2.5,0,0,0,44,4.5Zm32,19A2.5,2.5,0,1,0,78.5,26,2.5,2.5,0,0,0,76,23.5Zm0,36A2.5,2.5,0,1,0,78.5,62,2.5,2.5,0,0,0,76,59.5ZM14,27,42,43m4,2L74,61M14,61,42,45m4-2L74,27M13,60,43,9M13,28,43,79M45,9,75,60m0-32L45,79M46,8,75,25m-.85,38.25L46,80M75,25h0M13,25,42,8M13,63,42,80"/></g></g></svg>